<?xml version="1.0" encoding="UTF-8"?>
<svg width="512" height="512" viewBox="0 0 24 24" xmlns="http://www.w3.org/2000/svg">
    <defs>
        <linearGradient id="gradient" x1="0%" y1="0%" x2="100%" y2="100%">
            <stop offset="0%" style="stop-color:#FF6B6B"/>
            <stop offset="100%" style="stop-color:#4ECDC4"/>
        </linearGradient>
    </defs>
    <path fill="url(#gradient)" d="M20 7h-1.209A4.92 4.92 0 0 0 19 5.5C19 3.57 17.43 2 15.5 2c-1.622 0-2.705 1.482-3.404 3.085C11.407 3.57 10.269 2 8.5 2 6.57 2 5 3.57 5 5.5c0 .596.079 1.089.209 1.5H4c-1.103 0-2 .897-2 2v2c0 1.103.897 2 2 2v7c0 1.103.897 2 2 2h12c1.103 0 2-.897 2-2v-7c1.103 0 2-.897 2-2V9c0-1.103-.897-2-2-2zm-4.5-3c.827 0 1.5.673 1.5 1.5C17 7 16.374 7 16 7h-2.478c.511-1.576 1.253-3 1.978-3zM7 5.5C7 4.673 7.673 4 8.5 4c.888 0 1.714 1.525 2.198 3H8c-.374 0-1 0-1-1.5zM4 9h6v2H4V9zm2 11v-7h4v7H6zm10 0h-4v-7h4v7zm2-9h-6V9h6v2z"/>
</svg> 